# xmcd CD database file
#
# Track frame offsets:
#	150
#	22990
#	47544
#	70461
#
# Disc length: 1263 seconds
#
# Revision: 0
# Processed by: cddbd v1.5.1PL2 Copyright (c) Steve Scherf et al.
# Submitted via: CDex 1.51
#
DISCID=2c04ed04
DTITLE=えちうら - 桜道
DYEAR=2006
DGENRE=JPop
TTITLE0=桜道
TTITLE1=愛の花咲く世界
TTITLE2=桜道(Instrumental)
TTITLE3=愛の花咲く世界(Instrumental)
EXTD=YEAR: 2006
EXTT0=
EXTT1=
EXTT2=
EXTT3=
PLAYORDER=
